<?xml version="1.0" encoding="utf-8"?>
<!-- Generator: Adobe Illustrator 25.2.1, SVG Export Plug-In . SVG Version: 6.00 Build 0)  -->
<svg version="1.1" id="Layer_1" xmlns="http://www.w3.org/2000/svg" xmlns:xlink="http://www.w3.org/1999/xlink" x="0px" y="0px"
	 viewBox="0 0 700 1100" style="enable-background:new 0 0 700 1100;" xml:space="preserve">
<style type="text/css">
	.st0{fill:#FFFBF4;stroke:#000000;stroke-miterlimit:10;}
	.st1{fill:#F4E9D7;stroke:#F4E9D7;stroke-miterlimit:10;}
	.st2{fill:#F4E9D7;}
</style>
<rect class="st0" width="700" height="1100"/>
<path class="st1" d="M486.9,1100c1.3,0.1,2.6,0.3,3.9,0.6l7.4-10C493.4,1094.6,489.8,1097.6,486.9,1100z"/>
<g>
	<path class="st2" d="M559.5,1113.3c1.1-1,2.1-2,3.2-2.9c1.2-0.9,2.3-1.9,3.5-2.7c2.4-1.7,5.2-3.1,7.9-4.2c2.7-1.1,5.4-1.9,7.7-2.7
		c2.4-0.8,4.5-1.7,6.5-2.9l0.8-0.4l0.7-0.5c0.5-0.3,1-0.6,1.5-1l1.4-1.1c0.5-0.4,0.9-0.7,1.4-1.2c0.9-0.8,1.8-1.6,2.7-2.5l1.3-1.3
		c0.4-0.4,0.8-0.9,1.2-1.4c1.6-1.8,2.9-3.8,4-5.8c1.1-2.1,2-4.3,2.9-6.8c0.9-2.5,1.9-5.2,3.3-7.8c1.4-2.6,3-5,4.9-7.2
		c0.5-0.5,0.9-1.1,1.4-1.6l1.5-1.5c1-1,2-1.9,3.1-2.9c0.5-0.5,1.1-0.9,1.6-1.4l1.7-1.3c0.6-0.4,1.2-0.8,1.8-1.2l0.9-0.6l0.9-0.5
		c2.5-1.5,5.2-2.6,7.8-3.5c2.6-0.9,5.1-1.6,7.4-2.5c4.6-1.8,8.6-4.7,12.3-8.2c3.7-3.5,6.8-7.5,8.8-12.1c1-2.3,1.9-4.8,2.8-7.3
		c1-2.5,2.2-5.1,3.7-7.5l0.6-0.9l0.6-0.8c0.4-0.6,0.8-1.1,1.2-1.7l1.3-1.6c0.4-0.5,0.9-1,1.4-1.5c1-1,1.9-2,2.9-2.9l1.5-1.4
		c0.5-0.5,1.1-0.9,1.6-1.3c2.1-1.7,4.5-3.2,7-4.4c2.5-1.2,5.1-2.1,7.6-2.9c2.5-0.8,5-1.6,7.3-2.8c2.3-1.1,4.5-2.5,6.5-4.1
		c0.5-0.4,1-0.8,1.5-1.2l1.5-1.3c1-0.8,1.9-1.8,2.8-2.7c0.5-0.5,0.9-0.9,1.3-1.4l1.3-1.5c0.4-0.5,0.8-1,1.2-1.6l0.6-0.8l0.5-0.8
		c1.4-2.2,2.5-4.6,3.5-7c0.9-2.5,1.8-5,2.9-7.4c2.1-4.9,5.5-9.2,9.3-12.9c-3.7,3.8-6.8,8.2-8.7,13.1c-1,2.4-1.7,5-2.6,7.5
		c-0.9,2.5-1.9,5-3.3,7.3l-0.5,0.9l-0.6,0.8c-0.4,0.6-0.7,1.1-1.1,1.7l-1.2,1.6c-0.4,0.5-0.8,1.1-1.3,1.5c-0.9,1-1.8,2-2.8,2.9
		l-1.4,1.4c-0.5,0.5-1,0.9-1.5,1.3c-2,1.8-4.3,3.3-6.7,4.6c-2.4,1.3-5,2.3-7.5,3.2c-2.5,0.9-4.9,1.8-7.1,3c-2.2,1.2-4.4,2.6-6.3,4.3
		c-0.5,0.4-1,0.8-1.4,1.3l-1.4,1.4c-0.9,0.9-1.8,1.9-2.6,2.8c-0.4,0.5-0.8,1-1.2,1.5l-1.2,1.5c-0.4,0.5-0.7,1-1.1,1.6l-0.5,0.8
		l-0.5,0.8c-1.3,2.2-2.2,4.5-3.1,6.9c-0.8,2.4-1.6,5-2.6,7.6c-1,2.6-2.3,5.1-4,7.4c-0.8,1.2-1.7,2.2-2.5,3.4
		c-0.9,1.1-1.8,2.1-2.8,3.1c-1,1-2,2-3,2.9c-1.1,0.9-2.1,1.9-3.3,2.7c-2.2,1.7-4.8,3.1-7.4,4.3c-2.6,1.2-5.2,2-7.6,2.9
		c-2.4,0.9-4.6,1.9-6.6,3.3l-0.8,0.5l-0.7,0.5c-0.5,0.4-1,0.7-1.5,1.1l-1.4,1.2c-0.5,0.4-0.9,0.8-1.4,1.3c-0.9,0.9-1.8,1.7-2.6,2.7
		l-1.3,1.4c-0.4,0.5-0.8,1-1.1,1.4c-1.5,1.9-2.8,3.9-3.8,6.1c-1,2.1-1.8,4.4-2.6,7c-0.8,2.5-1.7,5.3-3,7.9c-1.3,2.6-2.9,5.2-4.7,7.4
		c-0.5,0.6-0.9,1.2-1.4,1.7l-1.4,1.6c-0.9,1.1-2,2-3,3c-0.5,0.5-1,1-1.6,1.5l-1.7,1.4c-0.6,0.5-1.2,0.9-1.8,1.3l-0.9,0.7l-0.9,0.6
		c-2.5,1.6-5.3,2.9-7.9,3.9c-2.6,1-5.1,1.8-7.2,2.8c-2.1,1-4.1,2.1-6,3.5c-1,0.6-1.8,1.5-2.7,2.2c-0.9,0.8-1.7,1.7-2.6,2.5
		L559.5,1113.3z"/>
</g>
<g>
	<path class="st2" d="M407.8,1125.4l4.8-5.1c1.6-1.7,3.4-3.3,5.1-4.9c1.8-1.6,3.6-3.1,5.4-4.6l2.8-2.1l1.4-1.1l1.5-1
		c7.8-5.4,16.7-9,24.6-13.7c8-4.5,15-10.3,21.5-16.8c6.5-6.5,12.7-13.3,17.6-20.8l1.8-2.8c0.6-1,1.1-1.9,1.7-2.9l0.8-1.5l0.8-1.5
		c0.5-1,1-2,1.5-3c2-4.1,3.8-8.4,5.8-12.7c2-4.4,4.4-8.7,7-12.8c1.4-2,2.7-4.1,4.2-6l2.2-2.9l2.3-2.8l2.4-2.8l2.5-2.6l2.5-2.6
		c0.8-0.9,1.7-1.7,2.6-2.5c1.8-1.7,3.4-3.4,5.3-5c1.8-1.6,3.6-3.2,5.6-4.7l2.9-2.3c1-0.7,2-1.4,3-2.1c2-1.4,4.1-2.7,6.2-3.9
		c4.3-2.4,8.6-4.6,12.9-6.6c4.2-2,8.3-3.9,12.2-6.1c1.9-1.2,3.8-2.2,5.6-3.5c0.9-0.6,1.8-1.2,2.7-1.9l2.7-2
		c7.1-5.5,13.7-11.9,19.7-18.6l2.2-2.5l2.1-2.6c1.4-1.7,2.7-3.6,3.9-5.4c2.5-3.7,4.7-7.5,6.7-11.7c2.1-4.1,4-8.4,6.3-12.6
		c0.6-1.1,1.2-2.1,1.8-3.2l0.9-1.6l1-1.5c0.7-1,1.3-2.1,2-3.1l2.1-3c5.7-7.9,12.4-14.8,19.6-21.1c7.2-6.3,15-12.1,23.7-16.3
		c4.3-2.2,8.7-3.9,13-5.8c4.3-1.8,8.5-3.7,12.5-6l1.5-0.8l1.5-0.9l3-1.8c1.9-1.3,3.8-2.6,5.7-4c1.8-1.4,3.7-2.8,5.5-4.3l5.3-4.6
		l-4.8,5.1c-1.6,1.7-3.4,3.3-5.1,4.9c-1.8,1.6-3.6,3.1-5.4,4.6l-2.8,2.1l-1.4,1.1l-1.5,1c-7.8,5.4-16.7,9.1-24.6,13.7
		c-8,4.5-15,10.3-21.5,16.8c-6.5,6.5-12.7,13.3-17.6,20.8l-1.8,2.8c-0.6,1-1.1,1.9-1.7,2.9l-0.8,1.5l-0.8,1.5c-0.5,1-1,2-1.5,3
		c-2,4.1-3.8,8.4-5.8,12.7c-2,4.4-4.4,8.7-7,12.8c-1.4,2-2.7,4.1-4.2,6l-2.2,2.9l-2.3,2.8l-2.4,2.8l-2.5,2.6l-2.5,2.6
		c-0.8,0.9-1.7,1.7-2.6,2.5c-1.8,1.7-3.4,3.4-5.3,5c-1.8,1.6-3.6,3.2-5.6,4.7l-2.9,2.2c-1,0.7-2,1.4-3,2.1c-2,1.4-4.1,2.7-6.2,3.9
		c-4.3,2.4-8.6,4.6-12.9,6.6c-4.2,2-8.3,3.9-12.2,6.1c-1.9,1.2-3.8,2.2-5.6,3.5c-0.9,0.6-1.8,1.2-2.7,1.9l-2.7,2
		c-7.1,5.5-13.6,11.9-19.7,18.6l-2.2,2.5l-2.1,2.6c-1.4,1.7-2.7,3.6-3.9,5.4c-2.5,3.7-4.7,7.5-6.8,11.7c-2.1,4.1-4,8.4-6.3,12.6
		c-0.6,1.1-1.2,2.1-1.8,3.2l-0.9,1.6l-1,1.5c-0.7,1-1.3,2.1-2,3.1l-2.1,3c-5.7,7.9-12.4,14.8-19.6,21.1c-7.2,6.3-15,12.1-23.7,16.3
		c-4.3,2.2-8.7,3.9-13,5.8c-4.3,1.9-8.5,3.7-12.5,6l-1.5,0.8l-1.5,0.9l-3,1.8c-1.9,1.3-3.8,2.6-5.7,4c-1.8,1.4-3.7,2.8-5.5,4.3
		L407.8,1125.4z"/>
</g>
<g>
	<path class="st2" d="M222.9,1102.5c9.5-10.8,20.3-20.6,32.4-28.7c1.5-1,3.1-1.9,4.6-2.9c0.8-0.5,1.5-1,2.3-1.4l2.4-1.3l2.4-1.3
		c0.8-0.4,1.6-0.9,2.4-1.3l4.9-2.4c6.7-3,13.6-5.6,20.6-7.6c7-2.1,14.1-3.7,21.1-5.2c7-1.5,14-2.8,20.9-4.3
		c6.9-1.6,13.7-3.2,20.3-5.3c6.6-2.1,13.1-4.5,19.5-7.4c6.3-2.9,12.4-6.2,18.4-9.9c5.9-3.8,11.7-7.8,17.1-12.3
		c10.9-8.9,21.1-19,29.8-30.2c2.1-2.9,4.3-5.7,6.1-8.7c0.9-1.5,2-2.9,2.8-4.5l2.6-4.6c3.3-6.3,6.3-12.7,8.6-19.4
		c4.7-13.4,7.2-27.4,9.4-41.5c2.3-14.1,4.6-28.5,9.4-42.4c2.4-7,5.4-13.7,8.7-20.3c1.8-3.2,3.5-6.5,5.6-9.6c1.9-3.2,4.1-6.1,6.2-9.2
		c0.5-0.8,1.1-1.5,1.6-2.2l1.7-2.2c1.1-1.4,2.2-2.9,3.4-4.3l3.6-4.2l1.8-2.1l1.9-2c2.5-2.7,5-5.4,7.6-7.9l3.9-3.8
		c1.3-1.3,2.7-2.5,4.1-3.7c5.4-5,11.3-9.4,17.3-13.7l4.7-3c1.5-1,3.2-1.9,4.8-2.9l2.4-1.4c0.8-0.5,1.6-0.9,2.4-1.3l5-2.5
		c6.7-3.1,13.6-5.9,20.7-8c7-2.2,14.2-3.8,21.3-5.2c7.1-1.4,14.2-2.6,21.2-3.8c7-1.2,13.9-2.5,20.7-4.2c6.8-1.7,13.5-3.7,20-6.2
		c6.5-2.6,12.8-5.6,19-9c12.2-7,23.7-15.5,34.4-25l0.7,0.7c-9.5,10.7-20.3,20.5-32.4,28.6c-6.1,4-12.5,7.6-19.1,10.7
		c-6.7,3-13.5,5.6-20.5,7.7c-7,2.1-14.1,3.8-21.1,5.4c-7,1.5-14,2.9-20.9,4.5c-6.9,1.6-13.6,3.3-20.2,5.6c-6.6,2.2-13,4.8-19.2,7.8
		c-6.2,3-12.1,6.6-17.9,10.4l-4.2,3l-2.1,1.5c-0.7,0.5-1.4,1.1-2.1,1.6l-4.1,3.2c-1.4,1.1-2.7,2.2-4,3.4c-1.3,1.1-2.7,2.2-3.9,3.4
		l-3.8,3.6c-2.6,2.3-5,4.9-7.4,7.4l-1.8,1.9l-1.7,1.9l-3.5,3.9c-1.2,1.3-2.2,2.7-3.3,4l-1.7,2c-0.6,0.7-1.1,1.3-1.6,2.1
		c-2.1,2.8-4.2,5.6-6,8.5c-2,2.9-3.7,5.9-5.5,8.8c-3.4,6-6.4,12.3-9,18.8l-1.8,4.9c-0.6,1.6-1.1,3.3-1.7,5c-0.6,1.6-1.1,3.3-1.6,5
		l-0.8,2.5l-0.7,2.6c-1.9,6.8-3.5,13.7-5,20.7c-1.6,7-3.2,14-5,21l-0.7,2.6l-0.8,2.6c-0.5,1.7-1,3.5-1.6,5.2
		c-0.6,1.7-1.1,3.4-1.7,5.2l-1.9,5.1c-2.7,6.7-5.6,13.3-9.1,19.7c-3.5,6.3-7.4,12.4-11.7,18.2c-0.5,0.7-1.1,1.5-1.6,2.2l-1.6,2.2
		c-1.1,1.4-2.2,2.9-3.3,4.3l-3.5,4.1l-1.7,2.1l-1.8,2c-2.4,2.7-4.8,5.4-7.4,8l-3.8,3.9c-1.3,1.3-2.6,2.5-3.9,3.8
		c-5.2,5-10.9,9.6-16.7,14l-4.5,3.1c-1.5,1.1-3.1,2-4.6,3l-2.3,1.4c-0.8,0.5-1.6,1-2.4,1.4l-4.9,2.6c-6.6,3.3-13.4,6.1-20.4,8.4
		c-7,2.3-14.1,4-21.2,5.4c-7.1,1.5-14.2,2.7-21.1,4c-7,1.3-13.9,2.6-20.7,4.4c-6.8,1.8-13.5,3.8-20,6.3l-4.8,2
		c-1.6,0.6-3.2,1.5-4.8,2.2l-2.4,1.1c-0.8,0.4-1.6,0.8-2.3,1.2c-1.5,0.8-3.1,1.6-4.7,2.5c-12.2,7-23.6,15.5-34.4,24.9L222.9,1102.5z
		"/>
</g>
<g>
	<path class="st2" d="M-1.2,1105.8c7.8-7.9,16.2-15.4,25.1-22.1c8.9-6.7,18.6-12.5,28.7-17.3c10.1-4.8,20.8-8.4,31.4-11.6
		c10.7-3.2,21.4-6.2,31.7-10.2c5.1-2,10.2-4.1,15.2-6.6l1.9-0.9l1.8-1l3.6-2l3.6-2.1c1.2-0.7,2.4-1.4,3.5-2.2
		c9.3-5.9,18-12.7,26.1-20.2c16.2-14.9,31-31.7,41.6-50.9c0.7-1.2,1.3-2.4,1.9-3.6c0.6-1.2,1.3-2.4,1.9-3.6c1.2-2.5,2.4-4.9,3.4-7.5
		c2.2-5,4.1-10.2,5.8-15.4c3.5-10.4,6.2-21.2,9.5-31.9c3.2-10.7,7.2-21.4,12.3-31.5c5.1-10.1,11.3-19.7,18.3-28.6
		c7-8.9,14.7-17.2,22.8-25c8.1-7.8,16.8-15.1,26.2-21.6c9.3-6.5,19.4-11.9,29.9-16.3c5.3-2.2,10.6-4.1,15.9-5.9
		c5.4-1.7,10.7-3.4,16.1-4.9c5.3-1.6,10.6-3.2,15.8-4.9c5.2-1.7,10.3-3.6,15.3-5.7c10-4.3,19.5-9.4,28.4-15.6
		c8.9-6.2,17.2-13.2,25.1-20.8c7.9-7.6,15.3-15.6,22-24.2c6.7-8.5,12.6-17.6,17.5-27.2c4.9-9.6,8.6-19.7,11.9-30.2
		c3.3-10.4,6.1-21.3,9.7-32c1.8-5.4,3.8-10.7,6.2-16c1.1-2.6,2.4-5.2,3.7-7.8c0.6-1.3,1.3-2.5,2-3.8c0.7-1.3,1.3-2.5,2.1-3.8
		c5.8-9.9,12.5-19.2,20-27.8c7.4-8.6,15.4-16.6,23.9-24.1c8.5-7.5,17.6-14.4,27.4-20.3c9.7-6,20.2-10.7,30.8-14.5
		c10.7-3.8,21.6-6.6,32.2-9.5c10.7-2.9,21.2-6.2,31.3-10.5c10.1-4.4,19.7-9.7,28.8-16.1c2.2-1.6,4.5-3.2,6.7-4.9
		c2.2-1.7,4.4-3.4,6.5-5.2c2.1-1.8,4.3-3.5,6.3-5.4l6.2-5.6l0.7,0.7l-5.8,6c-2,2-4,3.9-6,5.8c-2,1.9-4.2,3.7-6.3,5.6
		c-2.1,1.8-4.3,3.5-6.5,5.3c-8.8,6.9-18.4,12.9-28.6,17.9c-10.2,4.9-20.8,8.7-31.5,12.1l-15.9,5c-5.3,1.7-10.5,3.4-15.6,5.4
		c-5.1,2-10.1,4.1-14.9,6.6c-2.5,1.2-4.8,2.6-7.2,3.8l-3.5,2.1c-1.2,0.7-2.3,1.4-3.5,2.1c-9.1,5.9-17.7,12.7-25.7,20.1
		c-16,14.9-30.6,31.5-41.1,50.3c-0.7,1.2-1.3,2.4-1.9,3.6c-0.6,1.2-1.3,2.4-1.9,3.6c-1.1,2.4-2.3,4.8-3.4,7.3
		c-2.2,4.9-4,10-5.7,15.2c-3.5,10.3-6.2,21.1-9.6,31.8c-1.6,5.4-3.5,10.8-5.6,16.1c-2.1,5.3-4.5,10.6-7.1,15.7
		c-5.3,10.2-11.7,19.8-18.8,28.7c-7.2,8.9-15,17.1-23.3,24.8c-8.3,7.7-17.1,15-26.6,21.3c-9.4,6.4-19.7,11.7-30.2,16.1
		c-5.3,2.1-10.6,4-16,5.7c-5.4,1.7-10.8,3.2-16.1,4.7c-5.3,1.5-10.7,3-15.9,4.7c-5.2,1.7-10.4,3.5-15.4,5.5
		c-10.1,4.1-19.7,9.2-28.7,15.3c-9,6.1-17.5,13.1-25.5,20.6c-8,7.5-15.6,15.5-22.4,24c-6.8,8.5-12.9,17.7-17.9,27.3
		c-5,9.7-9,19.9-12.3,30.4c-3.4,10.5-6.2,21.3-9.9,32c-1.8,5.3-3.8,10.6-6.1,15.8c-1.1,2.6-2.4,5.1-3.6,7.7c-0.6,1.3-1.3,2.5-2,3.7
		c-0.7,1.2-1.3,2.5-2.1,3.7c-5.7,9.8-12.3,18.9-19.7,27.5c-7.3,8.5-15.3,16.5-23.7,23.9c-8.4,7.4-17.4,14.3-26.9,20.2
		c-1.2,0.8-2.4,1.4-3.6,2.1l-3.7,2.1l-3.7,1.9l-1.9,1l-1.9,0.9c-5.1,2.5-10.3,4.5-15.5,6.5c-10.5,3.8-21.3,6.7-32,9.7
		c-10.7,3-21.2,6.5-31.3,11c-10.1,4.6-19.7,10.2-28.6,16.7c-9,6.5-17.3,13.8-25.3,21.6L-1.2,1105.8z"/>
</g>
<g>
	<path class="st2" d="M-54,892.1c5.1-4.8,10.4-9.6,16.3-13.5c2.9-2.1,6-3.8,9.1-5.6c1.6-0.8,3.2-1.6,4.8-2.3
		c0.8-0.4,1.6-0.8,2.4-1.1l2.5-1l2.5-1l1.2-0.5l1.3-0.4l5.1-1.6c3.4-0.8,6.9-1.7,10.4-2.2c6.9-1.2,13.9-1.8,20.8-1.9
		c13.8-0.3,27.4,0.8,40.7,1.2c6.7,0.2,13.3,0.2,19.8-0.2c1.6-0.1,3.3-0.2,4.9-0.4l4.9-0.6c3.2-0.5,6.4-1,9.5-1.8
		c1.6-0.4,3.2-0.7,4.7-1.2c1.5-0.5,3.1-0.9,4.6-1.5l4.5-1.7l1.1-0.4l1.1-0.5l2.2-1l2.2-1c0.7-0.3,1.4-0.8,2.1-1.2l4.2-2.4l4-2.7
		c0.7-0.5,1.3-0.9,2-1.4l1.9-1.5l3.8-3l3.6-3.3c2.5-2.1,4.6-4.6,6.9-7c1.2-1.2,2.1-2.5,3.2-3.7c1-1.3,2.1-2.5,3-3.8
		c1.8-2.7,3.8-5.3,5.3-8.1l1.2-2.1l0.6-1l0.5-1.1l2.1-4.3c0.7-1.5,1.2-3,1.8-4.5c0.3-0.8,0.6-1.5,0.9-2.3l0.7-2.3
		c1.1-3.1,1.8-6.2,2.5-9.4l0.9-4.8l0.2-1.2l0.2-1.2l0.3-2.4c1.6-13,1-26.4,0.5-39.8c-0.5-13.5-1.1-27.2,0.6-41.1l0.3-2.6l0.2-1.3
		l0.2-1.3l0.9-5.1c0.8-3.4,1.6-6.8,2.7-10.1l0.8-2.5c0.3-0.8,0.6-1.6,0.9-2.5c0.7-1.6,1.3-3.3,2-4.9l2.3-4.7l0.6-1.2l0.7-1.1
		l1.3-2.3c1.7-3.1,3.8-5.9,5.8-8.8c1-1.4,2.2-2.7,3.3-4.1c1.1-1.3,2.2-2.7,3.4-4c2.4-2.5,4.7-5.1,7.3-7.4l3.8-3.5l4.1-3.3l2-1.6
		l2.2-1.5l4.3-3l4.5-2.6c0.8-0.4,1.5-0.9,2.3-1.3l2.4-1.1l2.4-1.1l1.2-0.6l1.2-0.5l4.9-1.9c1.6-0.6,3.3-1,5-1.6
		c1.7-0.6,3.4-0.9,5.1-1.3c3.4-0.9,6.8-1.4,10.2-2l5.2-0.6c1.7-0.2,3.4-0.3,5.2-0.4c6.9-0.4,13.7-0.4,20.5-0.2
		c13.6,0.4,27,1.5,40.3,1.2c6.7-0.1,13.3-0.7,19.8-1.8c3.3-0.5,6.4-1.3,9.6-2.1l4.7-1.5l1.2-0.4l1.1-0.4l2.3-0.9l2.3-0.9
		c0.8-0.3,1.5-0.7,2.2-1c1.5-0.7,3-1.4,4.4-2.1c2.8-1.7,5.7-3.2,8.4-5.1c5.5-3.6,10.4-8,15.2-12.6c4.6-4.8,9.1-9.7,12.7-15.2
		c2-2.6,3.5-5.6,5.2-8.4c0.8-1.5,1.5-2.9,2.2-4.4c0.4-0.7,0.7-1.5,1.1-2.2l0.9-2.3l0.9-2.3l0.5-1.1l0.4-1.2l1.5-4.7
		c0.8-3.2,1.7-6.4,2.2-9.7c1.2-6.5,1.8-13.1,1.9-19.8c0.4-13.4-0.6-26.8-0.9-40.4c-0.2-6.8-0.1-13.6,0.4-20.4
		c0.1-1.7,0.2-3.4,0.4-5.1l0.6-5.1c0.6-3.4,1.1-6.8,2-10.1c0.4-1.7,0.8-3.3,1.4-5c0.5-1.6,1-3.3,1.6-4.9l1.9-4.8l0.5-1.2l0.6-1.2
		l1.1-2.3l1.1-2.3c0.4-0.8,0.9-1.5,1.3-2.2l2.6-4.5l2.9-4.2c0.5-0.7,1-1.4,1.5-2.1l1.6-2l3.2-4l3.5-3.7c2.3-2.6,4.9-4.8,7.4-7.1
		c1.2-1.2,2.6-2.2,3.9-3.3c1.4-1.1,2.6-2.2,4-3.2c2.8-1.9,5.6-4,8.6-5.6l2.2-1.3l1.1-0.6l1.2-0.6l4.6-2.2c1.6-0.7,3.2-1.3,4.8-1.9
		c0.8-0.3,1.6-0.7,2.4-0.9l2.5-0.8c3.3-1.1,6.6-1.8,9.9-2.6l5.1-0.9c0.8-0.2,1.7-0.3,2.5-0.4l2.5-0.3c13.6-1.6,27.2-0.9,40.7-0.2
		c13.5,0.6,27,1.3,40.3-0.2l2.5-0.3l1.2-0.1l1.2-0.2l4.9-0.9c3.2-0.8,6.5-1.5,9.7-2.5l2.4-0.7c0.8-0.2,1.6-0.6,2.3-0.9
		c1.5-0.6,3.1-1.2,4.7-1.9l4.5-2.2l1.1-0.5l1.1-0.6l2.2-1.3c3-1.6,5.6-3.6,8.4-5.4c1.4-1,2.6-2.1,4-3.1c1.3-1.1,2.7-2,3.9-3.2
		c2.4-2.3,5-4.5,7.2-7l3.4-3.7l3.2-3.9l1.6-2l1.4-2.1l2.9-4.1l2.5-4.3c0.4-0.7,0.9-1.4,1.2-2.2l1.1-2.3l1.1-2.3l0.6-1.1l0.5-1.2
		l1.9-4.7c0.6-1.6,1-3.2,1.5-4.8c0.6-1.6,0.9-3.2,1.3-4.9c0.9-3.2,1.4-6.6,2-9.9l0.6-5c0.2-1.7,0.3-3.4,0.4-5
		c0.5-6.7,0.5-13.5,0.4-20.2c-0.3-13.5-1.3-27-0.9-40.5c0.2-6.8,0.8-13.5,2-20.2c0.5-3.3,1.4-6.6,2.2-9.9l1.5-4.8l0.4-1.2l0.5-1.2
		l0.9-2.4l0.9-2.4c0.3-0.8,0.7-1.5,1.1-2.3c0.8-1.5,1.5-3.1,2.2-4.5c1.7-2.9,3.3-5.9,5.3-8.6c3.7-5.6,8.3-10.6,13-15.5
		c-4.6,4.9-9.2,9.9-12.9,15.6c-2,2.7-3.6,5.7-5.3,8.6c-0.8,1.5-1.5,3-2.2,4.5c-0.4,0.8-0.8,1.5-1.1,2.3l-0.9,2.4l-0.9,2.4l-0.5,1.2
		l-0.4,1.2l-1.5,4.8c-0.8,3.3-1.6,6.5-2.1,9.9c-1.1,6.6-1.7,13.4-1.8,20.1c-0.3,13.5,0.8,27,1.2,40.5c0.2,6.8,0.2,13.5-0.2,20.3
		c-0.1,1.7-0.2,3.4-0.4,5.1l-0.6,5.1c-0.6,3.3-1,6.7-1.9,10c-0.4,1.7-0.8,3.3-1.3,4.9c-0.5,1.6-1,3.3-1.5,4.9l-1.9,4.8l-0.5,1.2
		l-0.6,1.2l-1.1,2.3l-1.1,2.3c-0.4,0.8-0.8,1.5-1.2,2.2l-2.6,4.4l-2.9,4.2l-1.4,2.1l-1.6,2l-3.2,4l-3.5,3.7
		c-2.2,2.6-4.8,4.8-7.3,7.2c-1.2,1.2-2.6,2.2-3.9,3.3c-1.3,1.1-2.6,2.2-4,3.2c-2.8,1.9-5.5,4-8.5,5.6l-2.2,1.3l-1.1,0.6l-1.1,0.6
		l-4.6,2.2c-1.6,0.7-3.2,1.3-4.7,1.9c-0.8,0.3-1.6,0.7-2.4,0.9l-2.4,0.8c-3.2,1.1-6.6,1.9-9.9,2.7l-5,0.9l-1.3,0.2l-1.3,0.2
		l-2.5,0.3c-13.5,1.7-27.2,1.1-40.7,0.5c-13.5-0.5-27-1.1-40.2,0.5l-2.5,0.3c-0.8,0.1-1.7,0.2-2.5,0.4l-4.9,0.9
		c-3.2,0.8-6.5,1.5-9.6,2.6l-2.4,0.8c-0.8,0.3-1.5,0.6-2.3,0.9c-1.5,0.6-3.1,1.2-4.6,1.9L493,361l-1.1,0.5l-1.1,0.6l-2.1,1.3
		c-2.9,1.6-5.6,3.6-8.3,5.5c-1.4,1-2.6,2.1-3.9,3.1c-1.3,1.1-2.6,2-3.8,3.2c-2.4,2.3-4.9,4.5-7.1,7l-3.4,3.7l-3.1,3.9l-1.6,1.9
		c-0.5,0.7-0.9,1.4-1.4,2l-2.8,4.1l-2.5,4.3c-0.4,0.7-0.9,1.4-1.2,2.2l-1.1,2.2l-1.1,2.2l-0.5,1.1l-0.5,1.2l-1.8,4.6
		c-0.5,1.6-1,3.2-1.5,4.7c-0.5,1.6-0.9,3.2-1.3,4.8c-0.8,3.2-1.3,6.5-1.9,9.8l-0.6,5c-0.2,1.7-0.3,3.3-0.4,5
		c-0.4,6.7-0.4,13.3-0.2,20.1c0.4,13.4,1.5,26.9,1.2,40.6c-0.1,6.8-0.7,13.7-1.9,20.5c-0.5,3.4-1.4,6.8-2.2,10.1l-1.5,5l-0.4,1.2
		l-0.5,1.2l-0.9,2.4l-0.9,2.4c-0.3,0.8-0.7,1.6-1.1,2.4c-0.8,1.6-1.5,3.1-2.3,4.7c-1.8,3-3.4,6.1-5.4,8.9c-3.8,5.8-8.4,11-13.2,16
		c-5,4.8-10.1,9.5-15.9,13.3c-2.8,2.1-5.9,3.7-8.8,5.5c-1.5,0.8-3.1,1.5-4.7,2.3c-0.8,0.4-1.6,0.8-2.4,1.1l-2.4,1l-2.4,1l-1.2,0.5
		l-1.2,0.4l-5,1.6c-3.4,0.8-6.7,1.7-10.1,2.3c-6.8,1.2-13.7,1.9-20.5,2c-13.7,0.4-27.3-0.6-40.7-0.9c-6.7-0.2-13.4-0.1-20,0.4
		c-1.6,0.1-3.3,0.2-4.9,0.4l-4.9,0.6c-3.2,0.6-6.5,1.1-9.6,1.9c-1.6,0.4-3.2,0.7-4.7,1.3c-1.6,0.5-3.1,1-4.7,1.5l-4.5,1.8l-1.1,0.5
		l-1.1,0.5l-2.2,1.1l-2.2,1.1c-0.7,0.3-1.4,0.8-2.1,1.2l-4.2,2.5l-4,2.8l-2,1.4l-1.9,1.5l-3.8,3.1l-3.6,3.4
		c-2.5,2.2-4.6,4.7-6.8,7.1c-1.2,1.2-2.1,2.5-3.1,3.8c-1,1.3-2.1,2.5-3,3.9c-1.8,2.7-3.8,5.3-5.3,8.2l-1.2,2.1l-0.6,1.1l-0.5,1.1
		l-2.1,4.4c-0.7,1.5-1.2,3-1.8,4.5c-0.3,0.8-0.6,1.5-0.9,2.3l-0.7,2.3c-1,3.1-1.7,6.3-2.5,9.4l-0.8,4.8l-0.2,1.2l-0.1,1.2l-0.3,2.4
		c-1.5,13.1-0.8,26.4-0.2,39.9c0.6,13.5,1.3,27.2-0.2,41.1l-0.3,2.6l-0.2,1.3l-0.2,1.3l-0.9,5.2c-0.8,3.4-1.5,6.9-2.7,10.2l-0.8,2.5
		c-0.3,0.8-0.6,1.6-0.9,2.5c-0.7,1.6-1.2,3.3-2,4.9l-2.3,4.8l-0.6,1.2l-0.7,1.1l-1.3,2.3c-1.7,3.1-3.8,5.9-5.7,8.9
		c-1,1.4-2.2,2.8-3.2,4.1c-1.1,1.4-2.1,2.8-3.4,4c-2.4,2.5-4.7,5.2-7.3,7.5l-3.8,3.6l-4.1,3.3l-2,1.7c-0.7,0.5-1.4,1-2.2,1.5l-4.3,3
		l-4.6,2.7c-0.8,0.4-1.5,0.9-2.3,1.3l-2.4,1.2l-2.4,1.2l-1.2,0.6l-1.2,0.5l-4.9,2c-1.7,0.6-3.4,1.1-5,1.6c-1.7,0.6-3.4,1-5.1,1.4
		c-3.4,0.9-6.9,1.5-10.3,2.1l-5.2,0.7c-1.7,0.2-3.5,0.3-5.2,0.4c-6.9,0.5-13.8,0.5-20.7,0.4c-13.7-0.3-27.1-1.3-40.2-0.9
		c-6.6,0.2-13.1,0.8-19.5,1.9c-3.2,0.5-6.3,1.3-9.4,2.1l-4.6,1.5l-1.1,0.4l-1.1,0.4l-2.2,0.9l-2.2,0.9c-0.7,0.3-1.4,0.7-2.2,1
		c-1.4,0.7-2.9,1.4-4.3,2.1c-2.7,1.7-5.6,3.1-8.1,5.1c-5.4,3.5-10.1,7.9-14.8,12.4L-54,892.1z"/>
</g>
<g>
	<path class="st2" d="M-99.2,609.3c5-5.1,10.7-9.5,17-13.1c6.3-3.5,13-6.2,20-7.8c7-1.7,14.2-2.4,21.3-2.5
		c7.2-0.1,14.3,0.4,21.4,1.4c14.2,1.8,28.1,5.2,41.9,8.6c13.8,3.4,27.6,7.1,41.5,9.9c6.9,1.4,13.9,2.6,20.9,3.3
		c7,0.8,14.1,1.1,21.1,0.7c7-0.3,13.9-1.4,20.6-3.4c6.7-2,13-4.9,18.8-8.7c5.8-3.8,11.1-8.4,15.7-13.6c4.6-5.2,8.5-11,11.5-17.2
		c2.9-6.2,5.1-12.9,6.2-19.7l0.4-2.6c0.1-0.9,0.2-1.7,0.3-2.6c0.2-1.7,0.3-3.5,0.5-5.2c0.2-3.5,0.3-7,0.1-10.4c-0.2-7-1-14-2.1-20.9
		c-1.1-6.9-2.6-13.9-4.2-20.7c-3.2-13.8-7.1-27.5-10.6-41.3c-1.7-6.9-3.4-13.9-4.8-21c-1.4-7.1-2.5-14.2-3.2-21.4
		c-0.4-3.6-0.5-7.3-0.6-10.9c0-3.7,0-7.3,0.4-11c0.6-7.3,2-14.6,4.4-21.7c2.5-7,5.9-13.7,10.2-19.7c4.4-6,9.5-11.4,15.2-16.2
		c5.7-4.7,12.2-8.6,19.1-11.5c6.9-2.8,14.1-4.8,21.5-5.7l2.8-0.4l2.8-0.2c1.8-0.2,3.7-0.2,5.5-0.3c3.7-0.1,7.3-0.1,11,0.2
		c7.3,0.4,14.5,1.3,21.6,2.5c14.3,2.4,28.1,6,41.9,9.5c13.8,3.5,27.5,7,41.3,9.3c6.9,1.2,13.8,2.1,20.7,2.4
		c3.4,0.2,6.9,0.2,10.3,0.1c1.7-0.1,3.4-0.1,5.1-0.3l2.5-0.2l2.5-0.3c6.7-0.9,13.2-2.7,19.4-5.2c6.1-2.7,11.9-6.1,17-10.4
		c5.1-4.3,9.8-9.2,13.7-14.6c3.9-5.4,6.9-11.4,9.1-17.7c4.3-12.6,5.1-26.4,3.8-40.1c-1.2-13.7-4.3-27.5-7.7-41.2
		c-3.4-13.7-7.2-27.5-10.4-41.5c-1.6-7-3-14.1-4.1-21.3c-1.1-7.2-1.9-14.5-2-21.9c-0.1-3.7,0-7.4,0.3-11.1c0.2-1.9,0.3-3.7,0.6-5.6
		c0.1-0.9,0.2-1.9,0.4-2.8l0.5-2.8c1.3-7.4,3.7-14.7,7.1-21.5c3.4-6.8,7.7-13.1,12.8-18.6C459.1,45,464.8,40,471.2,36
		c6.4-4,13.4-7.1,20.6-9.1c7.2-2,14.7-3.1,22-3.3c7.4-0.3,14.7,0.2,21.9,1.1c7.2,0.9,14.3,2.2,21.4,3.8c14.1,3.1,27.8,7,41.5,10.7
		c13.7,3.7,27.4,7.3,41.3,9.4c7,1.1,14,1.8,21,1.9c7,0.1,14-0.5,20.9-1.9c6.8-1.4,13.5-3.8,19.7-7.1c6.2-3.3,11.9-7.5,17.1-12.4
		l0.7,0.7c-5,5.2-10.6,9.7-16.8,13.5c-6.2,3.6-13,6.4-20,8.2c-7,1.8-14.3,2.7-21.5,2.8c-7.2,0.2-14.5-0.2-21.6-1.1
		c-28.6-3.5-56-12.4-83.7-17.8c-6.9-1.3-13.8-2.5-20.8-3.1c-3.5-0.4-6.9-0.6-10.4-0.7c-3.5-0.1-6.9-0.1-10.3,0.1
		c-6.9,0.3-13.6,1.5-20.1,3.4c-6.4,1.9-12.6,4.8-18.2,8.4c-5.6,3.7-10.7,8.2-15.2,13.2c-4.5,5-8.2,10.6-11.1,16.6
		c-5.8,12-7.8,25.7-7.2,39.3c0.2,6.8,1,13.7,2.1,20.6c1.1,6.9,2.5,13.7,4.1,20.6c3.2,13.7,7,27.4,10.4,41.3c1.7,7,3.3,14,4.7,21.1
		c1.3,7.1,2.4,14.3,3,21.7c0.3,3.7,0.5,7.4,0.5,11c0,3.7-0.1,7.4-0.5,11.2c-0.6,7.4-2.2,14.9-4.7,22.1c-2.6,7.1-6.2,13.9-10.6,20
		c-4.5,6.1-9.8,11.5-15.6,16.3c-5.9,4.7-12.5,8.6-19.5,11.5c-7,2.8-14.4,4.7-21.8,5.6l-2.8,0.3l-2.8,0.2c-1.9,0.2-3.7,0.2-5.6,0.3
		c-3.7,0-7.4,0-11-0.3c-7.3-0.4-14.5-1.5-21.7-2.7c-14.3-2.6-28.1-6.3-41.9-9.9c-13.8-3.6-27.5-7.3-41.3-9.7
		c-6.9-1.2-13.8-2.2-20.7-2.6c-3.5-0.2-6.9-0.3-10.4-0.2c-1.7,0.1-3.4,0.1-5.1,0.3l-2.6,0.2l-2.5,0.3c-6.8,0.8-13.4,2.6-19.7,5.1
		c-6.2,2.6-12.1,6.1-17.4,10.4c-5.3,4.3-10.1,9.3-14.1,14.7c-4,5.5-7.2,11.6-9.5,18c-4.6,12.9-5.4,27-4.2,40.8
		c0.6,7,1.6,13.9,2.9,20.8c1.3,6.9,2.8,13.8,4.5,20.7c3.3,13.8,7.1,27.5,10.2,41.5c1.6,7,3,14,4.1,21.2c1.1,7.1,1.8,14.3,2,21.6
		c0.1,3.6,0,7.3-0.2,10.9c-0.2,1.8-0.3,3.6-0.5,5.4c-0.1,0.9-0.2,1.8-0.4,2.7l-0.5,2.7c-1.3,7.2-3.6,14.2-6.8,20.8
		c-3.3,6.6-7.5,12.7-12.4,18c-4.9,5.4-10.5,10.1-16.7,14.1c-6.2,3.9-12.9,6.9-19.9,8.9c-7,2-14.3,3-21.5,3.3
		c-7.2,0.3-14.4-0.1-21.6-1c-7.1-0.8-14.2-2.1-21.2-3.6c-14-3-27.7-6.8-41.5-10.4c-13.8-3.6-27.6-7-41.6-9c-7-1-14.1-1.6-21.1-1.6
		c-7.1,0-14.1,0.7-21,2.2c-6.9,1.5-13.5,4.1-19.7,7.5c-6.2,3.5-11.8,7.8-16.9,12.7L-99.2,609.3z"/>
</g>
<g>
	<path class="st2" d="M-140.9,418c9.6-10.9,20.1-21.1,31.5-30.3c1.4-1.2,2.9-2.3,4.4-3.4c1.5-1.1,2.9-2.2,4.4-3.3l4.5-3.1
		c1.5-1,3.1-2,4.6-3c6.2-3.9,12.7-7.5,19.3-10.7c6.6-3.2,13.4-6.1,20.1-8.8c6.8-2.7,13.5-5.3,20.1-8c6.6-2.8,13.1-5.6,19.5-8.7
		c6.4-3.1,12.6-6.6,18.6-10.2c12.2-7.3,23.7-15.9,34.6-25.2c1.4-1.2,2.8-2.3,4.1-3.5l4-3.6c2.7-2.4,5.2-4.9,7.8-7.4
		c5.1-5.1,10-10.3,14.8-15.8c9.3-11,17.6-22.9,24.2-35.6c6.8-12.7,11.7-26.2,16.4-39.9c4.7-13.7,9.7-27.6,16.5-40.7
		c6.7-13.2,15.2-25.4,24.4-36.9c9.3-11.4,19.4-22.1,30.1-32.2l4-3.8l4.2-3.6c2.8-2.5,5.7-4.7,8.5-7.1c5.8-4.5,11.8-8.9,18.1-12.9
		c6.3-3.9,12.8-7.6,19.4-10.8c6.7-3.2,13.5-6.1,20.3-8.7c6.8-2.6,13.7-5.1,20.5-7.5c6.8-2.5,13.5-5,20-7.8c6.5-2.8,13-5.9,19.2-9.3
		c6.3-3.4,12.3-7.2,18.3-11.2C347.8-3.3,359-12.4,369.9-22l0.7,0.7c-9.6,10.9-20.1,21-31.6,30.2c-5.7,4.5-11.7,8.9-17.9,12.8
		c-6.2,3.9-12.7,7.6-19.3,10.8c-6.6,3.2-13.3,6.2-20.1,9c-6.7,2.8-13.5,5.4-20.1,8.2c-6.6,2.8-13.1,5.7-19.3,9
		c-6.3,3.2-12.4,6.8-18.3,10.6c-6,3.8-11.6,8-17.3,12.3c-2.8,2.2-5.6,4.4-8.2,6.7l-4.1,3.4l-4,3.6c-2.7,2.3-5.3,4.8-7.8,7.3
		c-2.6,2.4-5.1,5-7.6,7.5c-2.6,2.5-4.9,5.2-7.4,7.7c-2.4,2.6-4.7,5.3-7.1,8c-9.2,10.9-17.5,22.4-24.6,34.7c-3.5,6.2-6.8,12.5-9.8,19
		c-3,6.5-5.8,13.1-8.6,19.8c-2.8,6.7-5.6,13.4-8.7,20c-0.7,1.7-1.5,3.3-2.3,5c-0.8,1.7-1.6,3.3-2.4,4.9c-0.8,1.6-1.6,3.3-2.5,4.9
		c-0.9,1.6-1.7,3.2-2.6,4.8c-3.6,6.4-7.5,12.6-11.6,18.6c-4.1,6-8.6,11.8-13.1,17.5c-2.4,2.8-4.6,5.6-7,8.4
		c-2.4,2.7-4.8,5.5-7.3,8.2c-2.5,2.7-4.9,5.4-7.5,8c-2.5,2.6-5,5.3-7.7,7.8l-3.9,3.8l-4,3.7c-2.7,2.5-5.5,4.9-8.3,7.3
		c-5.7,4.7-11.5,9.2-17.6,13.3c-6.1,4.1-12.5,7.9-19.1,11.2c-6.6,3.3-13.4,6.3-20.2,9c-6.8,2.7-13.6,5.2-20.4,7.7
		c-6.8,2.5-13.4,5.1-20,7.9c-6.5,2.9-12.9,6-19.2,9.4c-1.5,0.9-3.1,1.7-4.7,2.6l-4.6,2.8c-1.6,0.9-3,1.9-4.5,2.9c-1.5,1-3,1.9-4.5,3
		c-11.8,8.1-23.1,17.2-34,26.7L-140.9,418z"/>
</g>
<g>
	<path class="st2" d="M-42.2,151c1.2-1,2.3-2.1,3.5-3.1c1.3-1,2.5-2,3.8-2.8c2.6-1.8,5.6-3.2,8.6-4.2c3-1,5.8-1.7,8.4-2.4
		c2.6-0.7,4.8-1.5,7-2.7l0.8-0.4l0.8-0.5l1.6-1l1.5-1.1l0.8-0.6c0.2-0.2,0.5-0.4,0.7-0.6c1-0.9,2-1.7,2.8-2.7l1.4-1.4
		c0.4-0.5,0.8-1,1.2-1.5c3.3-3.9,5.2-8.3,6.7-13.7c0.8-2.7,1.7-5.6,3.1-8.4c0.3-0.7,0.7-1.4,1.1-2.1c0.4-0.7,0.8-1.4,1.2-2
		c0.9-1.3,1.7-2.6,2.7-3.7c0.5-0.6,1-1.2,1.5-1.7l1.6-1.6c1-1.1,2.2-2.1,3.3-3.1c0.5-0.5,1.1-1,1.7-1.4l1.8-1.4l1.9-1.3
		c0.3-0.2,0.6-0.4,1-0.6l1-0.5c1.3-0.8,2.8-1.4,4.2-1.9l2.1-0.8c0.7-0.2,1.4-0.4,2.1-0.6c2.8-0.8,5.5-1.4,8-2.3
		c2.5-0.8,4.8-1.9,7-3.4c1.1-0.7,2.1-1.5,3.2-2.3c1-0.8,2-1.8,3-2.6c0.9-1,1.9-1.9,2.8-2.9c0.8-1,1.7-2,2.4-3.1
		c1.6-2.1,2.7-4.5,3.7-6.9c1-2.5,1.7-5.2,2.6-7.9c0.2-0.7,0.4-1.4,0.7-2.1l0.8-2.1c0.6-1.4,1.2-2.7,2-4l0.6-1l0.6-0.9
		c0.4-0.6,0.8-1.2,1.3-1.8l1.4-1.7l0.7-0.8c0.2-0.3,0.5-0.5,0.8-0.8c1-1,2-2.1,3.1-3.1l1.6-1.5c0.6-0.5,1.2-0.9,1.7-1.3
		c1.1-0.9,2.4-1.7,3.6-2.5c0.6-0.4,1.3-0.7,1.9-1c0.6-0.4,1.3-0.7,2-0.9c2.7-1.2,5.5-2,8.2-2.7c2.7-0.7,5.4-1.4,7.9-2.5
		c0.6-0.3,1.3-0.5,1.8-0.9c0.6-0.3,1.2-0.6,1.8-1c1.1-0.7,2.3-1.4,3.4-2.3c0.5-0.4,1.1-0.8,1.6-1.3l1.5-1.4c1.1-0.9,2-1.9,3-2.9
		c0.5-0.5,0.9-1,1.4-1.6l1.3-1.6l1.2-1.7l0.6-0.9l0.5-0.9c3-4.7,3.9-10.4,5.9-15.7c2-5.4,5.5-10,9.5-13.9c-3.9,4.1-7.2,8.8-8.9,14.1
		c-0.9,2.6-1.5,5.4-2.3,8.1c-0.8,2.7-1.7,5.4-3.1,8l-0.5,1c-0.2,0.3-0.4,0.6-0.6,0.9l-1.2,1.8l-1.3,1.7c-0.4,0.6-0.9,1.1-1.4,1.7
		c-1,1.1-1.9,2.2-2.9,3.1l-1.5,1.5c-0.5,0.5-1.1,0.9-1.7,1.4c-1.1,1-2.3,1.7-3.5,2.6c-0.6,0.4-1.3,0.7-1.9,1.1
		c-0.6,0.4-1.3,0.7-1.9,1c-2.6,1.3-5.4,2.1-8.1,2.9c-2.7,0.8-5.3,1.6-7.7,2.8c-0.6,0.3-1.2,0.6-1.8,0.9c-0.6,0.3-1.2,0.7-1.7,1
		c-1.1,0.8-2.2,1.5-3.3,2.4c-0.5,0.4-1.1,0.8-1.6,1.3l-1.5,1.4c-1,0.9-1.9,2-2.8,3c-0.2,0.3-0.5,0.5-0.7,0.8l-0.6,0.8L79.2,40
		l-1.1,1.7l-0.5,0.8l-0.5,0.9c-1.3,2.3-2.2,4.8-2.9,7.5c-0.7,2.6-1.4,5.4-2.4,8.2c-1,2.8-2.2,5.6-3.9,8.1c-0.8,1.3-1.7,2.4-2.6,3.6
		c-0.9,1.2-2,2.2-2.9,3.3c-1.1,1-2.1,2.1-3.2,3.1c-1.2,0.9-2.3,1.9-3.5,2.8c-2.4,1.8-5.2,3.2-8,4.3c-2.8,1.1-5.6,1.8-8.2,2.7
		c-2.6,0.8-4.9,1.8-7.1,3.1l-0.8,0.5c-0.3,0.2-0.5,0.4-0.8,0.5l-1.6,1.1l-1.5,1.2c-0.5,0.4-1,0.8-1.5,1.3c-0.9,0.9-1.9,1.8-2.8,2.8
		L22,98.9c-0.4,0.5-0.8,1-1.2,1.5c-0.8,1-1.5,2.1-2.2,3.2c-0.3,0.5-0.6,1.1-0.9,1.7c-0.3,0.5-0.6,1.1-0.8,1.7
		c-1,2.3-1.7,4.8-2.4,7.5c-0.7,2.7-1.5,5.7-2.8,8.6c-0.3,0.7-0.6,1.4-1,2.1c-0.4,0.7-0.7,1.4-1.1,2.1c-0.8,1.3-1.7,2.7-2.6,3.9
		c-0.5,0.6-0.9,1.2-1.4,1.8l-1.5,1.7c-1,1.2-2.1,2.2-3.2,3.2c-0.3,0.3-0.5,0.5-0.8,0.8l-0.9,0.7l-1.8,1.5c-0.6,0.5-1.3,0.9-1.9,1.4
		l-1,0.7l-1,0.6c-1.4,0.8-2.8,1.5-4.3,2.2l-2.2,0.9c-0.7,0.3-1.4,0.5-2.2,0.7c-2.8,0.9-5.5,1.6-7.8,2.5c-2.3,0.9-4.4,2-6.4,3.4
		c-1,0.6-1.9,1.5-2.9,2.3c-0.9,0.8-1.8,1.8-2.7,2.6L-42.2,151z"/>
</g>
</svg>
