<svg xmlns="http://www.w3.org/2000/svg" width="103" height="67.046" viewBox="0 0 103 67.046"><g transform="translate(-82.5 -74.368)"><g transform="translate(130 74.368)"><circle cx="6" cy="6" r="6" transform="translate(43.5)" fill="#d51313"/><g transform="translate(0 9)"><path d="M55.083,44.069l-2.361-3.456A33.051,33.051,0,0,1,46.5,21.3c0-7.319-5.152-13.215-12.021-15.249A4.914,4.914,0,0,0,29.754,3a4.914,4.914,0,0,0-4.722,3.05C18.163,8.083,13.011,13.979,13.011,21.3A33.051,33.051,0,0,1,6.786,40.613L4.425,44.069a2.341,2.341,0,0,0,2.147,3.66H52.936A2.341,2.341,0,0,0,55.083,44.069Z" transform="translate(-4.004 -3)" fill="none" stroke="#525252" stroke-linecap="round" stroke-linejoin="round" stroke-miterlimit="10" stroke-width="5"/><path d="M33.635,25A10.817,10.817,0,0,1,12,25" transform="translate(2.933 19.729)" fill="none" stroke="#525252" stroke-linecap="round" stroke-linejoin="round" stroke-miterlimit="10" stroke-width="5"/></g></g><path d="M24,24,4.875,4.875,24-15.719" transform="translate(80.125 105.5)" fill="none" stroke="#5a5a5a" stroke-linecap="round" stroke-linejoin="round" stroke-width="5"/></g></svg>