<svg xmlns="http://www.w3.org/2000/svg" width="228" height="62" viewBox="0 0 228 62">
  <g id="Group_36" data-name="Group 36" transform="translate(-1299 -254)">
    <rect id="Rectangle_55" data-name="Rectangle 55" width="228" height="62" rx="18" transform="translate(1299 254)" fill="#f5f5f5"/>
    <g id="Group_28" data-name="Group 28" transform="translate(7.969 37)">
      <line id="Line_48" data-name="Line 48" x1="20.042" y2="20.042" transform="translate(1466.5 238.479)" fill="none" stroke="#707070" stroke-linecap="round" stroke-width="3"/>
      <line id="Line_49" data-name="Line 49" x1="20.042" y2="20.042" transform="translate(1466.5 258.522) rotate(-90)" fill="none" stroke="#707070" stroke-linecap="round" stroke-width="3"/>
    </g>
    <path id="Path_79" data-name="Path 79" d="M4.389,0A1.673,1.673,0,0,1,3.151-.446a1.628,1.628,0,0,1-.445-1.2V-21.615a1.628,1.628,0,0,1,.445-1.2,1.673,1.673,0,0,1,1.237-.445h6.468q5.643,0,8.745,3.036t3.1,8.58q0,5.544-3.1,8.6T10.857,0Zm6.27-2.838q8.58,0,8.58-8.811,0-8.778-8.58-8.778H6.105V-2.838Zm17.952,3a1.826,1.826,0,0,1-1.2-.4,1.453,1.453,0,0,1-.479-1.188v-13.4a1.5,1.5,0,0,1,.479-1.2,1.779,1.779,0,0,1,1.2-.413,1.717,1.717,0,0,1,1.188.413,1.531,1.531,0,0,1,.462,1.2v13.4A1.479,1.479,0,0,1,29.8-.231,1.761,1.761,0,0,1,28.611.165Zm0-19.833a2.125,2.125,0,0,1-1.518-.528,1.815,1.815,0,0,1-.561-1.386,1.763,1.763,0,0,1,.561-1.37,2.167,2.167,0,0,1,1.518-.512,2.18,2.18,0,0,1,1.5.512,1.738,1.738,0,0,1,.578,1.37,1.815,1.815,0,0,1-.561,1.386A2.125,2.125,0,0,1,28.611-19.668ZM40.524.231a9.986,9.986,0,0,1-5.511-1.386,2.508,2.508,0,0,1-.841-.759,1.646,1.646,0,0,1-.248-.891,1.361,1.361,0,0,1,.3-.891.938.938,0,0,1,.759-.363,3.253,3.253,0,0,1,1.353.528,13.883,13.883,0,0,0,1.931.858,7.211,7.211,0,0,0,2.36.33A4.633,4.633,0,0,0,43.1-2.9a1.772,1.772,0,0,0,.891-1.584,1.546,1.546,0,0,0-.346-1.056,2.938,2.938,0,0,0-1.2-.709A20.55,20.55,0,0,0,39.9-6.93a9.79,9.79,0,0,1-4.174-1.7,3.621,3.621,0,0,1-1.271-2.92,4.253,4.253,0,0,1,.825-2.557,5.358,5.358,0,0,1,2.277-1.766,8.25,8.25,0,0,1,3.3-.627,9.62,9.62,0,0,1,2.574.347,7.271,7.271,0,0,1,2.211,1.007,2.046,2.046,0,0,1,1.089,1.683,1.316,1.316,0,0,1-.313.891.952.952,0,0,1-.743.363,1.452,1.452,0,0,1-.594-.132,7.838,7.838,0,0,1-.792-.429,11.084,11.084,0,0,0-1.667-.825,5.436,5.436,0,0,0-1.931-.3,3.787,3.787,0,0,0-2.228.594,1.877,1.877,0,0,0-.841,1.617,1.625,1.625,0,0,0,.776,1.436,9.508,9.508,0,0,0,2.921.974,16,16,0,0,1,3.465,1.056,4.106,4.106,0,0,1,1.8,1.468,4.151,4.151,0,0,1,.545,2.228,4.06,4.06,0,0,1-1.8,3.448A8.011,8.011,0,0,1,40.524.231ZM69.3-16.5q5.412,0,5.412,6.5v8.58A1.489,1.489,0,0,1,74.25-.247a1.765,1.765,0,0,1-1.221.412,1.717,1.717,0,0,1-1.188-.412,1.489,1.489,0,0,1-.462-1.172V-9.966a4.685,4.685,0,0,0-.726-2.921,2.741,2.741,0,0,0-2.277-.908A3.577,3.577,0,0,0,65.5-12.556a5.043,5.043,0,0,0-1.056,3.382v7.755a1.489,1.489,0,0,1-.462,1.172,1.765,1.765,0,0,1-1.221.412,1.717,1.717,0,0,1-1.188-.412,1.489,1.489,0,0,1-.462-1.172V-9.966a4.685,4.685,0,0,0-.726-2.921,2.741,2.741,0,0,0-2.277-.908,3.627,3.627,0,0,0-2.888,1.238,4.991,4.991,0,0,0-1.072,3.382v7.755a1.489,1.489,0,0,1-.462,1.172A1.717,1.717,0,0,1,52.5.165a1.779,1.779,0,0,1-1.2-.412,1.463,1.463,0,0,1-.479-1.172V-14.85a1.451,1.451,0,0,1,.495-1.155,1.753,1.753,0,0,1,1.188-.429,1.61,1.61,0,0,1,1.139.413,1.475,1.475,0,0,1,.445,1.138v1.221A5.047,5.047,0,0,1,56.1-15.774a5.941,5.941,0,0,1,2.97-.726,5.632,5.632,0,0,1,3.052.759,4.535,4.535,0,0,1,1.8,2.343,5.506,5.506,0,0,1,2.145-2.26A6.219,6.219,0,0,1,69.3-16.5ZM80.949.165a1.826,1.826,0,0,1-1.2-.4,1.453,1.453,0,0,1-.479-1.188v-13.4a1.5,1.5,0,0,1,.479-1.2,1.779,1.779,0,0,1,1.2-.413,1.717,1.717,0,0,1,1.188.413,1.531,1.531,0,0,1,.462,1.2v13.4a1.479,1.479,0,0,1-.462,1.188A1.761,1.761,0,0,1,80.949.165Zm0-19.833a2.125,2.125,0,0,1-1.518-.528,1.815,1.815,0,0,1-.561-1.386,1.763,1.763,0,0,1,.561-1.37,2.167,2.167,0,0,1,1.518-.512,2.18,2.18,0,0,1,1.5.512,1.738,1.738,0,0,1,.577,1.37,1.815,1.815,0,0,1-.561,1.386A2.125,2.125,0,0,1,80.949-19.668ZM92.862.231a9.986,9.986,0,0,1-5.511-1.386,2.508,2.508,0,0,1-.841-.759,1.646,1.646,0,0,1-.247-.891,1.361,1.361,0,0,1,.3-.891.938.938,0,0,1,.759-.363,3.253,3.253,0,0,1,1.353.528,13.883,13.883,0,0,0,1.931.858,7.211,7.211,0,0,0,2.359.33A4.633,4.633,0,0,0,95.436-2.9a1.772,1.772,0,0,0,.891-1.584,1.546,1.546,0,0,0-.347-1.056,2.938,2.938,0,0,0-1.2-.709,20.55,20.55,0,0,0-2.541-.676,9.79,9.79,0,0,1-4.174-1.7,3.621,3.621,0,0,1-1.271-2.92,4.253,4.253,0,0,1,.825-2.557,5.358,5.358,0,0,1,2.277-1.766,8.251,8.251,0,0,1,3.3-.627,9.62,9.62,0,0,1,2.574.347,7.271,7.271,0,0,1,2.211,1.007,2.046,2.046,0,0,1,1.089,1.683,1.316,1.316,0,0,1-.313.891.952.952,0,0,1-.743.363,1.452,1.452,0,0,1-.594-.132,7.838,7.838,0,0,1-.792-.429,11.084,11.084,0,0,0-1.666-.825,5.436,5.436,0,0,0-1.931-.3A3.787,3.787,0,0,0,90.8-13.3a1.877,1.877,0,0,0-.841,1.617,1.625,1.625,0,0,0,.776,1.436,9.508,9.508,0,0,0,2.92.974,16,16,0,0,1,3.465,1.056,4.106,4.106,0,0,1,1.8,1.468,4.151,4.151,0,0,1,.544,2.228,4.06,4.06,0,0,1-1.8,3.448A8.011,8.011,0,0,1,92.862.231Zm15.906,0a9.986,9.986,0,0,1-5.511-1.386,2.508,2.508,0,0,1-.841-.759,1.646,1.646,0,0,1-.247-.891,1.361,1.361,0,0,1,.3-.891.938.938,0,0,1,.759-.363,3.253,3.253,0,0,1,1.353.528,13.883,13.883,0,0,0,1.931.858,7.211,7.211,0,0,0,2.359.33,4.633,4.633,0,0,0,2.475-.561,1.772,1.772,0,0,0,.891-1.584,1.546,1.546,0,0,0-.347-1.056,2.938,2.938,0,0,0-1.2-.709,20.55,20.55,0,0,0-2.541-.676,9.79,9.79,0,0,1-4.174-1.7,3.621,3.621,0,0,1-1.271-2.92,4.253,4.253,0,0,1,.825-2.557,5.358,5.358,0,0,1,2.277-1.766,8.251,8.251,0,0,1,3.3-.627,9.62,9.62,0,0,1,2.574.347,7.271,7.271,0,0,1,2.211,1.007,2.046,2.046,0,0,1,1.089,1.683,1.316,1.316,0,0,1-.313.891.952.952,0,0,1-.743.363,1.452,1.452,0,0,1-.594-.132,7.838,7.838,0,0,1-.792-.429,11.084,11.084,0,0,0-1.666-.825,5.436,5.436,0,0,0-1.931-.3,3.787,3.787,0,0,0-2.228.594,1.877,1.877,0,0,0-.841,1.617,1.625,1.625,0,0,0,.775,1.436,9.508,9.508,0,0,0,2.921.974,16,16,0,0,1,3.465,1.056,4.106,4.106,0,0,1,1.8,1.468,4.151,4.151,0,0,1,.544,2.228,4.06,4.06,0,0,1-1.8,3.448A8.011,8.011,0,0,1,108.768.231Z" transform="translate(1330 296)" fill="#707070"/>
  </g>
</svg>
